<?xml version="1.0" standalone="no"?>
<!DOCTYPE svg PUBLIC "-//W3C//DTD SVG 20010904//EN"
 "http://www.w3.org/TR/2001/REC-SVG-20010904/DTD/svg10.dtd">
<svg version="1.0" xmlns="http://www.w3.org/2000/svg"
 width="1280.000000pt" height="1280.000000pt" viewBox="0 0 1280.000000 1280.000000"
 preserveAspectRatio="xMidYMid meet">
<metadata>
Created by potrace 1.14, written by Peter Selinger 2001-2017
</metadata>
<g transform="translate(0.000000,1280.000000) scale(0.100000,-0.100000)"
fill="#000000" stroke="none">
<path d="M3375 10382 c-3 -3 -706 -153 -835 -178 -14 -3 -118 -25 -231 -49
-114 -24 -220 -47 -237 -50 -26 -4 -246 -52 -277 -59 -9 -2 -57 -12 -105 -22
-8 -1 -103 -21 -210 -44 -107 -23 -206 -43 -220 -46 -120 -22 -202 -88 -238
-189 -11 -33 -37 -105 -57 -160 -20 -55 -95 -269 -166 -475 -72 -206 -145
-418 -164 -470 -75 -213 -262 -765 -497 -1465 -119 -353 -132 -397 -132 -462
0 -64 3 -77 30 -115 44 -63 247 -196 884 -582 52 -32 176 -107 275 -167 99
-61 249 -151 333 -202 83 -51 164 -100 180 -109 15 -9 38 -23 52 -31 14 -8
124 -74 245 -147 121 -73 234 -140 250 -150 17 -9 71 -41 120 -70 179 -107
209 -119 278 -115 107 7 308 24 352 30 17 2 62 6 100 10 39 3 88 8 110 10 50
6 110 12 200 20 39 3 88 8 110 11 22 2 60 6 85 8 39 4 133 13 210 21 14 2 54
6 90 9 94 9 161 17 190 21 14 2 59 7 100 10 41 3 86 8 100 10 14 2 57 6 95 10
60 5 135 13 370 40 22 3 65 7 95 11 93 10 145 31 188 78 48 52 62 81 100 211
17 55 53 174 80 265 90 294 149 491 206 680 52 171 111 364 123 400 3 8 9 29
13 45 10 38 115 384 134 445 9 25 29 92 46 150 18 58 59 195 92 305 33 110 65
220 72 245 81 282 113 418 110 466 -2 39 -36 109 -72 150 -24 26 -159 124
-677 489 -243 172 -838 587 -1205 842 -550 381 -542 376 -643 371 -27 -2 -50
-4 -52 -6z"/>
<path d="M10130 8514 c-68 -14 -283 -71 -535 -144 -154 -44 -287 -83 -295 -85
-15 -4 -413 -120 -530 -155 -58 -17 -508 -150 -835 -246 -171 -51 -309 -93
-393 -120 -40 -13 -77 -24 -82 -24 -25 0 -102 -45 -137 -80 -22 -21 -47 -58
-56 -82 -12 -33 -72 -323 -104 -498 -4 -24 -77 -409 -87 -460 -6 -32 -76 -407
-82 -440 -3 -14 -11 -56 -19 -95 -8 -38 -17 -86 -20 -105 -3 -19 -14 -82 -25
-140 -11 -58 -21 -116 -24 -130 -2 -14 -12 -65 -21 -115 -10 -49 -19 -101 -21
-115 -3 -14 -7 -36 -9 -50 -3 -14 -7 -36 -10 -50 -2 -14 -23 -122 -45 -240
-44 -235 -44 -234 -60 -335 -6 -38 -15 -90 -20 -115 -19 -89 -19 -135 -2 -188
20 -67 52 -100 322 -337 113 -98 207 -182 210 -185 3 -3 34 -30 70 -60 36 -30
67 -57 70 -60 3 -3 115 -100 250 -215 135 -115 247 -212 250 -215 3 -3 178
-153 390 -334 212 -181 399 -340 415 -355 17 -14 73 -62 125 -106 52 -44 97
-82 100 -85 15 -15 119 -98 145 -115 51 -33 189 -26 290 15 11 5 61 23 110 40
50 17 101 36 115 42 14 5 79 29 145 53 141 50 741 273 770 285 11 5 92 36 180
69 391 145 751 282 767 291 10 5 22 10 28 10 5 0 112 41 237 90 159 63 238
100 261 121 34 31 68 90 76 130 3 13 12 47 20 74 30 106 270 1001 281 1054 2
9 13 50 25 91 11 41 23 85 25 96 3 12 28 109 56 215 28 107 53 203 55 213 2
10 8 33 13 50 6 17 33 121 61 231 29 110 67 259 86 330 101 388 128 510 128
590 0 54 -6 90 -17 111 -25 49 -110 120 -391 327 -16 12 -50 38 -75 58 -25 19
-233 172 -461 340 -576 423 -588 432 -620 454 -16 11 -102 74 -192 139 -204
150 -679 491 -736 530 -43 30 -111 41 -172 30z"/>
</g>
</svg>
